<svg version="1.2" xmlns="http://www.w3.org/2000/svg" viewBox="0 0 19 18" width="19" height="18"><style>.a{fill:#fff}</style><path fill-rule="evenodd" class="a" d="m10 1.6c-2.5 0-2.7 0-3.6 0.1-1 0.1-1.4 0.2-1.8 0.4-0.4 0.1-0.8 0.3-1.1 0.5-0.2 0.4-0.5 0.7-0.6 1-0.1 0.4-0.3 0.8-0.3 1.8 0 0.9 0 1.2 0 3.6 0 2.4 0 2.7 0 3.6 0.1 1 0.2 1.4 0.3 1.8 0.1 0.4 0.4 0.6 0.7 1 0.4 0.3 0.6 0.5 1 0.7 0.4 0.1 0.8 0.3 1.8 0.3 0.9 0 1.2 0 3.6 0 2.4 0 2.7 0 3.6 0 1-0.1 1.4-0.2 1.8-0.3 0.4-0.2 0.6-0.4 1-0.7 0.3-0.4 0.5-0.6 0.7-1 0.1-0.4 0.3-0.8 0.3-1.8 0-0.9 0-1.2 0-3.6 0-2.4 0-2.7 0-3.6-0.1-1-0.2-1.4-0.3-1.8-0.2-0.4-0.4-0.6-0.7-1-0.4-0.3-0.6-0.5-1-0.7-0.4-0.1-0.8-0.3-1.8-0.3-0.9 0-1.2 0-3.6 0zm0-1.6c2.4 0 2.7 0 3.8 0 0.9 0.1 1.6 0.2 2.1 0.5 0.6 0.2 1.2 0.5 1.6 1 0.5 0.4 0.8 1 1 1.6 0.3 0.5 0.5 1.2 0.5 2.1 0 1.1 0 1.3 0 3.8 0 2.5 0 2.8 0 3.8-0.1 0.9-0.2 1.6-0.5 2.1-0.2 0.6-0.5 1.2-1 1.6-0.4 0.5-1 0.8-1.6 1-0.5 0.3-1.2 0.5-2.1 0.5-1.1 0-1.3 0-3.8 0-2.5 0-2.8 0-3.8 0-0.9-0.1-1.6-0.2-2.1-0.5-0.6-0.2-1.2-0.5-1.6-1-0.5-0.4-0.8-1-1-1.6-0.3-0.5-0.5-1.2-0.5-2.1 0-1.1 0-1.3 0-3.8 0-2.5 0-2.8 0-3.8 0.1-0.9 0.2-1.6 0.5-2.1 0.2-0.6 0.5-1.2 1-1.6 0.4-0.5 1-0.8 1.6-1 0.5-0.3 1.2-0.5 2.1-0.5 1.1 0 1.3 0 3.8 0zm4.7 9.1c0 2.6-2.1 4.7-4.7 4.7-2.6 0-4.7-2.1-4.7-4.7 0-2.6 2.1-4.7 4.7-4.7 2.5 0 4.6 2.1 4.7 4.7zm-1.7-0.1c0-1.6-1.4-3-3-3-1.6 0-3 1.3-3 3 0 1.7 1.3 3.1 3 3.1 1.6 0 3-1.5 3-3.1zm1.8-5.9c0.6 0 1.1 0.5 1.1 1.1 0 0.6-0.5 1.2-1.1 1.2-0.6 0-1.2-0.6-1.2-1.2 0-0.6 0.6-1.1 1.2-1.1z"/></svg>