<svg version="1.2" xmlns="http://www.w3.org/2000/svg" width="19" height="18"><path fill-rule="evenodd" d="M10 1.6c-2.5 0-2.7 0-3.6.1-1 .1-1.4.2-1.8.4-.4.1-.8.3-1.1.5-.2.4-.5.7-.6 1-.1.4-.3.8-.3 1.8v7.2c.1 1 .2 1.4.3 1.8.1.4.4.6.7 1 .4.3.6.5 1 .7.4.1.8.3 1.8.3h7.2c1-.1 1.4-.2 1.8-.3.4-.2.6-.4 1-.7.3-.4.5-.6.7-1 .1-.4.3-.8.3-1.8V5.4c-.1-1-.2-1.4-.3-1.8-.2-.4-.4-.6-.7-1-.4-.3-.6-.5-1-.7-.4-.1-.8-.3-1.8-.3H10zM10 0h3.8c.9.1 1.6.2 2.1.5.6.2 1.2.5 1.6 1 .5.4.8 1 1 1.6.3.5.5 1.2.5 2.1v7.6c-.1.9-.2 1.6-.5 2.1-.2.6-.5 1.2-1 1.6-.4.5-1 .8-1.6 1-.5.3-1.2.5-2.1.5H6.2c-.9-.1-1.6-.2-2.1-.5-.6-.2-1.2-.5-1.6-1-.5-.4-.8-1-1-1.6-.3-.5-.5-1.2-.5-2.1V5.2c.1-.9.2-1.6.5-2.1.2-.6.5-1.2 1-1.6.4-.5 1-.8 1.6-1C4.6.2 5.3 0 6.2 0H10zm4.7 9.1c0 2.6-2.1 4.7-4.7 4.7s-4.7-2.1-4.7-4.7S7.4 4.4 10 4.4c2.5 0 4.6 2.1 4.7 4.7zM13 9c0-1.6-1.4-3-3-3S7 7.3 7 9s1.3 3.1 3 3.1c1.6 0 3-1.5 3-3.1zm1.8-5.9c.6 0 1.1.5 1.1 1.1 0 .6-.5 1.2-1.1 1.2-.6 0-1.2-.6-1.2-1.2s.6-1.1 1.2-1.1z" style="fill:#fff"/></svg>